<?xml version="1.0" encoding="UTF-8" standalone="no"?>
<!-- Created with Inkscape (http://www.inkscape.org/) -->

<svg
   xmlns:dc="http://purl.org/dc/elements/1.1/"
   xmlns:cc="http://creativecommons.org/ns#"
   xmlns:rdf="http://www.w3.org/1999/02/22-rdf-syntax-ns#"
   xmlns:svg="http://www.w3.org/2000/svg"
   xmlns="http://www.w3.org/2000/svg"
   xmlns:sodipodi="http://sodipodi.sourceforge.net/DTD/sodipodi-0.dtd"
   xmlns:inkscape="http://www.inkscape.org/namespaces/inkscape"
   width="210mm"
   height="297mm"
   viewBox="0 0 210 297"
   version="1.1"
   id="svg1038"
   inkscape:version="0.92.3 (2405546, 2018-03-11)"
   sodipodi:docname="envelope.svg">
  <defs
     id="defs1032" />
  <sodipodi:namedview
     id="base"
     pagecolor="#ffffff"
     bordercolor="#666666"
     borderopacity="1.0"
     inkscape:pageopacity="0.0"
     inkscape:pageshadow="2"
     inkscape:zoom="0.98994949"
     inkscape:cx="332.66775"
     inkscape:cy="767.44116"
     inkscape:document-units="mm"
     inkscape:current-layer="layer1"
     showgrid="false"
     inkscape:window-width="1920"
     inkscape:window-height="1001"
     inkscape:window-x="-9"
     inkscape:window-y="-9"
     inkscape:window-maximized="1" />
  <metadata
     id="metadata1035">
    <rdf:RDF>
      <cc:Work
         rdf:about="">
        <dc:format>image/svg+xml</dc:format>
        <dc:type
           rdf:resource="http://purl.org/dc/dcmitype/StillImage" />
        <dc:title></dc:title>
      </cc:Work>
    </rdf:RDF>
  </metadata>
  <g
     inkscape:label="Layer 1"
     inkscape:groupmode="layer"
     id="layer1">
    <rect
       style="opacity:1;vector-effect:none;fill:none;fill-opacity:1;fill-rule:nonzero;stroke:#2f5061;stroke-width:4.19877577;stroke-linecap:butt;stroke-linejoin:miter;stroke-miterlimit:4;stroke-dasharray:none;stroke-dashoffset:0;stroke-opacity:1"
       id="rect5421"
       width="90.87796"
       height="63.164082"
       x="11.257447"
       y="64.334618"
       ry="4.9377012" />
    <path
       style="opacity:1;vector-effect:none;fill:none;fill-opacity:1;stroke:#2f5061;stroke-width:4.19877577;stroke-linecap:butt;stroke-linejoin:miter;stroke-miterlimit:4;stroke-dasharray:none;stroke-dashoffset:0;stroke-opacity:1"
       d="M 11.257456,68.778334 32.563777,85.294626 M 81.206831,85.829165 102.13544,68.778334"
       id="path5423"
       inkscape:connector-curvature="0"
       sodipodi:nodetypes="cccc" />
    <path
       style="fill:#2f5061;fill-opacity:1;stroke-width:0.27349207"
       d="m 50.829906,74.789484 c -1.175531,0 -3.436451,1.37717 -4.95758,3.02016 -3.175741,3.43018 -4.231349,7.47396 -2.88608,11.05667 0.736089,1.96037 2.42044,3.83661 3.947469,4.39723 2.257351,0.82875 4.780092,-0.10803 6.431881,-2.38824 1.19357,-1.64768 1.63681,-3.44967 1.631341,-6.63165 -0.01029,-5.92862 -1.564111,-9.45417 -4.167031,-9.45417 z m 11.625558,0 c -2.74975,0 -4.34885,3.99971 -4.13123,10.33448 0.087,2.53416 0.20399,3.14076 0.86695,4.49498 0.83323,1.70206 2.55028,3.36738 3.86735,3.75037 2.02497,0.58883 3.70583,0.0927 5.37317,-1.58593 2.64669,-2.6647 3.19678,-6.83429 1.38669,-10.51075 -1.61199,-3.27408 -5.25658,-6.48315 -7.36293,-6.48315 z m 12.73127,13.2665 c -1.43658,-0.0201 -2.9743,1.184 -4.59594,3.60667 -1.78151,2.6615 -2.53801,4.70876 -2.55812,6.92277 -0.0261,2.880186 1.34109,5.065006 3.59493,5.744406 1.06597,0.32132 1.17476,0.31474 2.77605,-0.16079 1.74869,-0.51931 3.67219,-2.31017 4.67714,-4.355036 0.56969,-1.15921 0.66851,-1.74232 0.65114,-3.82889 -0.0234,-2.82121 -0.71963,-5.02941 -2.07202,-6.56968 -0.78544,-0.89456 -1.61123,-1.34742 -2.47318,-1.35945 z m -37.227519,0.0187 c -1.470019,0.046 -2.778439,1.33247 -3.763189,3.85399 -0.92144,2.35942 -0.91729,6.00144 0.008,7.88532 0.95967,1.952756 2.938718,3.838846 4.5623,4.348106 3.607239,1.13144 6.5234,-1.37611 6.485289,-5.576676 -0.02011,-2.21401 -0.77661,-4.26127 -2.558119,-6.92276 -1.633011,-2.43965 -3.264791,-3.63396 -4.734822,-3.58798 z m 18.545662,5.90037 c -2.939632,-0.0116 -5.62778,1.63588 -7.822311,4.86463 -0.862629,1.269186 -2.726529,3.428816 -4.142441,4.799466 -3.137538,3.03723 -4.036798,4.66745 -4.027599,7.30255 0.01289,3.6767 2.35466,6.26291 6.557931,7.24221 1.85071,0.43116 3.9199,0.28447 6.890719,-0.48876 2.450909,-0.63792 2.53951,-0.63307 7.438238,0.44496 1.82565,0.40174 2.45081,0.42675 4.05484,0.16184 4.62593,-0.76394 7.3045,-3.45794 7.31806,-7.36025 0.0103,-2.96151 -1.19606,-4.862 -5.34699,-8.4227 -0.96275,-0.82583 -1.95121,-1.9999 -2.41762,-2.871656 -1.31217,-2.45251 -2.48872,-3.69938 -4.36092,-4.62106 -1.41757,-0.69786 -2.80572,-1.04598 -4.141907,-1.05123 z"
       id="path3009"
       inkscape:connector-curvature="0" />
  </g>
</svg>
