<?xml version="1.0" encoding="UTF-8" standalone="no"?>
<!-- Created with Inkscape (http://www.inkscape.org/) -->

<svg
   xmlns:dc="http://purl.org/dc/elements/1.1/"
   xmlns:cc="http://creativecommons.org/ns#"
   xmlns:rdf="http://www.w3.org/1999/02/22-rdf-syntax-ns#"
   xmlns:svg="http://www.w3.org/2000/svg"
   xmlns="http://www.w3.org/2000/svg"
   xmlns:sodipodi="http://sodipodi.sourceforge.net/DTD/sodipodi-0.dtd"
   xmlns:inkscape="http://www.inkscape.org/namespaces/inkscape"
   width="210mm"
   height="297mm"
   viewBox="0 0 210 297"
   version="1.1"
   id="svg1038"
   inkscape:version="0.92.3 (2405546, 2018-03-11)"
   sodipodi:docname="lupa.svg">
  <defs
     id="defs1032" />
  <sodipodi:namedview
     id="base"
     pagecolor="#ffffff"
     bordercolor="#666666"
     borderopacity="1.0"
     inkscape:pageopacity="0.0"
     inkscape:pageshadow="2"
     inkscape:zoom="0.98994949"
     inkscape:cx="332.66775"
     inkscape:cy="767.44116"
     inkscape:document-units="mm"
     inkscape:current-layer="layer1"
     showgrid="false"
     inkscape:window-width="1920"
     inkscape:window-height="1001"
     inkscape:window-x="-9"
     inkscape:window-y="-9"
     inkscape:window-maximized="1" />
  <metadata
     id="metadata1035">
    <rdf:RDF>
      <cc:Work
         rdf:about="">
        <dc:format>image/svg+xml</dc:format>
        <dc:type
           rdf:resource="http://purl.org/dc/dcmitype/StillImage" />
        <dc:title></dc:title>
      </cc:Work>
    </rdf:RDF>
  </metadata>
  <g
     inkscape:label="Layer 1"
     inkscape:groupmode="layer"
     id="layer1">
    <path
       style="fill:#2f5061;fill-opacity:1;stroke-width:0.32568073"
       d="m 62.748149,27.860824 c -1.39985,0 -4.09221,1.63997 -5.9036,3.59648 -3.78175,4.08474 -5.03879,8.90018 -3.43682,13.16655 0.87656,2.33446 2.88232,4.56874 4.70074,5.23633 2.68811,0.98689 5.69224,-0.12864 7.65922,-2.84398 1.42133,-1.9621 1.94916,-4.10796 1.94264,-7.89712 -0.0123,-7.05995 -1.86258,-11.25826 -4.96218,-11.25826 z m 13.84397,0 c -3.27446,0 -5.17871,4.76295 -4.91956,12.30655 0.10364,3.01773 0.24292,3.74008 1.03238,5.35273 0.99223,2.02686 3.03694,4.00996 4.60533,4.46603 2.41138,0.70119 4.41299,0.11041 6.39849,-1.88857 3.15174,-3.17319 3.8068,-8.13843 1.6513,-12.51645 -1.91959,-3.89885 -6.25964,-7.72029 -8.76794,-7.72029 z m 15.16068,15.79807 c -1.71071,-0.0239 -3.54186,1.40992 -5.47295,4.29492 -2.12146,3.16937 -3.02232,5.60729 -3.04627,8.24379 -0.0311,3.42979 1.59701,6.03153 4.28093,6.84058 1.26938,0.38264 1.39893,0.3748 3.30578,-0.19147 2.08239,-0.61841 4.37294,-2.75102 5.56965,-5.1861 0.6784,-1.3804 0.79608,-2.07478 0.7754,-4.55953 -0.0279,-3.35956 -0.85696,-5.98913 -2.46742,-7.82332 -0.93531,-1.06528 -1.91868,-1.60454 -2.94512,-1.61887 z m -44.33137,0.0223 c -1.75053,0.0548 -3.30862,1.58675 -4.48128,4.58943 -1.09727,2.80965 -1.09233,7.14666 0.01,9.39003 1.1428,2.32537 3.49948,4.57139 5.43288,5.17782 4.29559,1.34735 7.76822,-1.6387 7.72284,-6.64085 -0.0239,-2.63648 -0.92481,-5.0744 -3.04627,-8.24377 -1.94463,-2.90521 -3.88779,-4.32742 -5.63834,-4.27267 z m 22.08459,7.02631 c -3.50058,-0.0138 -6.70168,1.94803 -9.31497,5.79291 -1.02725,1.51139 -3.24682,4.08311 -4.93292,5.71532 -3.73626,3.6168 -4.80712,5.55811 -4.79616,8.69605 0.0153,4.3783 2.80399,7.45803 7.80934,8.6242 2.20386,0.51344 4.66791,0.33875 8.20562,-0.58203 2.91859,-0.75965 3.0241,-0.75387 8.85762,0.52987 2.17403,0.4784 2.91849,0.50819 4.8286,0.19273 5.50866,-0.90972 8.69836,-4.11781 8.71451,-8.76477 0.0123,-3.52664 -1.4243,-5.78979 -6.36731,-10.02996 -1.14647,-0.9834 -2.32355,-2.38152 -2.87896,-3.41963 -1.56256,-2.9205 -2.96363,-4.4053 -5.19309,-5.50286 -1.68807,-0.83103 -3.34111,-1.24558 -4.93228,-1.25183 z"
       id="path3009-9"
       inkscape:connector-curvature="0" />
    <circle
       style="opacity:1;vector-effect:none;fill:none;fill-opacity:1;fill-rule:nonzero;stroke:#2f5061;stroke-width:5;stroke-linecap:butt;stroke-linejoin:miter;stroke-miterlimit:4;stroke-dasharray:none;stroke-dashoffset:0;stroke-opacity:1"
       id="path844-0"
       cx="85.685463"
       cy="54.319267"
       r="31.343075" />
    <path
       style="opacity:1;vector-effect:none;fill:none;fill-opacity:1;stroke:#2f5061;stroke-width:5;stroke-linecap:butt;stroke-linejoin:miter;stroke-miterlimit:4;stroke-dasharray:none;stroke-dashoffset:0;stroke-opacity:1"
       d="m 111.69164,70.973434 17.38692,12.47321"
       id="path877"
       inkscape:connector-curvature="0" />
  </g>
</svg>
